<?xml version="1.0" standalone="no"?>
<!DOCTYPE svg PUBLIC "-//W3C//DTD SVG 20010904//EN"
 "http://www.w3.org/TR/2001/REC-SVG-20010904/DTD/svg10.dtd">
<svg version="1.0" xmlns="http://www.w3.org/2000/svg"
 width="700.000000pt" height="700.000000pt" viewBox="0 0 700.000000 700.000000"
 preserveAspectRatio="xMidYMid meet">
<metadata>
Created by potrace 1.14, written by Peter Selinger 2001-2017
</metadata>
<g transform="translate(0.000000,700.000000) scale(0.100000,-0.100000)"
fill="#000000" stroke="none">
<path d="M1532 6784 c-56 -10 -94 -31 -118 -66 -24 -35 -27 -47 -28 -133 l0
-95 -218 0 -218 0 -1 -52 c-2 -100 3 -93 -69 -94 -36 -1 -68 -2 -71 -3 -3 0
-6 -131 -6 -291 l0 -290 74 0 c40 0 72 -3 72 -7 -1 -5 -1 -37 0 -73 l1 -66
215 1 c118 0 216 -2 216 -5 1 -3 2 -98 3 -212 1 -200 1 -207 -19 -210 -11 -2
-111 -3 -222 -3 l-203 0 0 -72 0 -73 -73 0 -73 0 0 -290 c-1 -330 -13 -293 94
-292 l52 0 0 -74 0 -74 91 0 c59 0 88 -4 84 -10 -11 -17 -74 -200 -70 -200 3
0 0 -12 -6 -27 -13 -34 -15 -44 -40 -161 -8 -40 -14 -52 -27 -50 -14 3 -17 -8
-20 -69 l-3 -73 -32 -1 c-18 -1 -51 -1 -73 -1 l-42 1 2 -292 1 -292 60 -1 c33
-1 66 -2 73 -3 10 -1 13 -16 12 -53 -3 -90 -3 -88 35 -88 33 0 35 -2 50 -57
22 -81 63 -194 102 -286 18 -43 33 -80 33 -82 0 -2 -42 -3 -92 -3 -153 0 -138
8 -138 -72 0 -78 8 -71 -90 -74 l-55 -1 0 -290 0 -290 50 -1 c105 -4 95 4 95
-74 l0 -70 38 -1 c20 0 119 0 219 0 132 0 182 -3 185 -12 2 -7 4 -104 4 -217
l-1 -205 -222 -3 -223 -2 0 -73 0 -73 -65 1 c-39 1 -69 -3 -73 -9 -4 -6 -7
-138 -8 -294 l0 -283 35 1 c20 1 53 2 74 1 l37 -1 0 -73 0 -72 213 1 c116 0
217 -1 223 -3 7 -3 10 -33 9 -81 -1 -42 2 -91 7 -109 12 -43 49 -85 86 -99 23
-9 438 -12 1594 -10 l1563 1 35 22 c56 35 64 56 68 180 3 76 8 113 16 113 6 1
103 2 216 3 l205 2 2 60 c0 33 2 65 2 71 1 7 26 11 65 11 34 0 67 2 72 6 5 3
8 100 8 217 l-1 212 351 -350 c230 -230 366 -358 396 -373 64 -33 185 -34 252
-1 106 52 162 142 163 262 0 128 8 118 -519 645 -528 528 -515 517 -648 518
-73 0 -79 2 -108 32 -29 30 -35 54 -31 123 1 21 5 22 74 22 l72 0 -2 287 c-1
159 -2 290 -2 293 -1 3 -33 5 -73 5 l-72 0 0 70 -1 70 -53 1 c-29 1 -55 3 -57
6 -3 3 12 47 34 99 21 52 49 126 61 164 25 82 23 72 52 203 l23 102 37 0 c21
0 38 3 39 8 1 4 2 134 3 289 1 296 1 297 -43 288 -20 -4 -19 -5 -38 105 -24
151 -51 256 -99 387 -39 109 -38 104 -21 102 6 -1 24 -1 40 0 25 1 27 4 26 39
-1 20 -1 53 0 72 l1 35 70 -1 c46 -1 70 2 71 10 1 6 1 74 2 151 0 77 2 132 4
123 3 -10 9 -18 14 -18 5 0 9 -6 9 -12 0 -7 17 -24 37 -38 35 -24 44 -25 201
-27 90 -1 166 -4 168 -6 2 -2 4 -392 4 -866 l0 -862 319 -319 c175 -175 333
-326 351 -335 60 -31 149 -3 185 58 20 34 23 94 6 134 -7 15 -137 154 -291
307 l-279 279 2 805 2 804 165 2 c146 1 169 3 195 20 45 29 63 57 71 104 11
75 -36 144 -111 159 -22 5 -104 8 -183 8 l-142 -1 0 279 c1 274 1 280 -22 312
-29 43 -69 66 -117 67 -91 1 -154 -67 -151 -165 1 -28 1 -151 1 -272 l-1 -220
-170 -1 c-167 -1 -170 -1 -204 -27 -19 -15 -38 -36 -41 -47 -13 -42 -21 -16
-20 68 0 48 -1 92 -3 98 -1 6 -31 10 -72 10 -78 -1 -72 -9 -72 92 0 46 -2 52
-21 53 -12 0 -111 1 -219 1 l-198 1 0 213 0 214 215 0 215 0 0 73 0 73 72 0
72 0 1 292 0 292 -72 0 -73 0 0 73 0 73 -214 -1 -214 0 -4 91 c-3 81 -6 95
-30 126 -15 20 -43 41 -62 48 -24 8 -466 11 -1570 13 -845 1 -1539 1 -1544 1z
m3388 -5200 l117 -117 -3 -66 c-2 -39 3 -78 11 -98 13 -30 12 -33 -3 -34 -9 0
-80 -1 -157 -2 l-140 -1 -3 220 -2 220 31 -2 c25 -2 53 -25 149 -120z"/>
</g>
</svg>
